<svg width="20" height="14" viewBox="0 0 20 14" fill="none" xmlns="http://www.w3.org/2000/svg">
<path d="M12.3438 7.375C12.5938 7.625 12.4062 8 12.0938 8H10V10.625C10 10.8438 9.8125 11 9.625 11H8.375C8.15625 11 8 10.8438 8 10.625V8H5.90625C5.5625 8 5.375 7.625 5.625 7.375L8.71875 4.28125C8.875 4.125 9.09375 4.125 9.25 4.28125L12.3438 7.375ZM16.9688 5.28125C18.75 5.90625 20 7.59375 20 9.5C20 12 17.9688 14 15.5 14H5C2.21875 14 0 11.7812 0 9C0 6.96875 1.21875 5.15625 3.09375 4.375C3.625 1.875 5.84375 0 8.5 0C10.25 0 11.7812 0.84375 12.7812 2.09375C13 2.03125 13.25 2 13.5 2C15.3438 2 16.8438 3.46875 16.9688 5.28125ZM15.5 12.5C17.1562 12.5 18.5 11.1562 18.5 9.5C18.5 7.84375 17.1562 6.5 15.5 6.5C15.4062 6.5 15.3125 6.53125 15.2188 6.53125C15.375 6.21875 15.5 5.875 15.5 5.5C15.5 4.40625 14.5938 3.5 13.5 3.5C13 3.5 12.5312 3.6875 12.1875 4C11.5938 2.53125 10.1562 1.5 8.5 1.5C6.28125 1.5 4.5 3.3125 4.5 5.5V5.5625C2.78125 5.78125 1.5 7.25 1.5 9C1.5 10.9375 3.0625 12.5 5 12.5H15.5Z" fill="#666666"/>
</svg>
