<svg width="19" height="17" viewBox="0 0 19 17" fill="none" xmlns="http://www.w3.org/2000/svg">
<path d="M12.7021 11.7812L13.7021 10.7812C13.8584 10.625 14.1396 10.75 14.1396 10.9688V15.5C14.1396 16.3438 13.4521 17 12.6396 17H1.63965C0.795898 17 0.139648 16.3438 0.139648 15.5V4.5C0.139648 3.6875 0.795898 3 1.63965 3H10.1709C10.3896 3 10.5146 3.28125 10.3584 3.4375L9.3584 4.4375C9.2959 4.5 9.2334 4.5 9.1709 4.5H1.63965V15.5H12.6396V11.9688C12.6396 11.9062 12.6396 11.8438 12.7021 11.7812ZM17.5771 5.5L9.38965 13.6875L6.5459 14C5.7334 14.0938 5.0459 13.4062 5.13965 12.5938L5.45215 9.75L13.6396 1.5625C14.3584 0.84375 15.5146 0.84375 16.2334 1.5625L17.5771 2.90625C18.2959 3.625 18.2959 4.78125 17.5771 5.5ZM14.5146 6.4375L12.7021 4.625L6.88965 10.4375L6.63965 12.5L8.70215 12.25L14.5146 6.4375ZM16.5146 3.96875L15.1709 2.625C15.0459 2.46875 14.8271 2.46875 14.7021 2.625L13.7646 3.5625L15.5771 5.40625L16.5459 4.4375C16.6709 4.28125 16.6709 4.09375 16.5146 3.96875Z" fill="white"/>
</svg>
