<svg width="17" height="17" viewBox="0 0 17 17" fill="none" xmlns="http://www.w3.org/2000/svg">
<path d="M8.5 0.75C4.21875 0.75 0.75 4.25 0.75 8.5C0.75 12.7812 4.21875 16.25 8.5 16.25C12.75 16.25 16.25 12.7812 16.25 8.5C16.25 4.25 12.75 0.75 8.5 0.75ZM8.5 14.75C5.03125 14.75 2.25 11.9688 2.25 8.5C2.25 5.0625 5.03125 2.25 8.5 2.25C11.9375 2.25 14.75 5.0625 14.75 8.5C14.75 11.9688 11.9375 14.75 8.5 14.75ZM9.8125 11.5C9.8125 10.7812 9.21875 10.1875 8.5 10.1875C7.75 10.1875 7.1875 10.7812 7.1875 11.5C7.1875 12.25 7.75 12.8125 8.5 12.8125C9.21875 12.8125 9.8125 12.25 9.8125 11.5ZM7.25 4.90625L7.46875 9.15625C7.46875 9.34375 7.65625 9.5 7.84375 9.5H9.125C9.3125 9.5 9.5 9.34375 9.5 9.15625L9.71875 4.90625C9.71875 4.6875 9.5625 4.5 9.34375 4.5H7.625C7.40625 4.5 7.25 4.6875 7.25 4.90625Z" fill="white"/>
</svg>
