<svg width="19" height="12" viewBox="0 0 19 12" fill="none" xmlns="http://www.w3.org/2000/svg">
<path d="M9.13965 2.5C8.7959 2.53125 8.45215 2.5625 8.13965 2.65625C8.2959 2.90625 8.3584 3.21875 8.38965 3.5C8.38965 4.46875 7.57715 5.25 6.63965 5.25C6.32715 5.25 6.01465 5.1875 5.7959 5.03125C5.70215 5.34375 5.63965 5.65625 5.63965 6C5.63965 7.9375 7.20215 9.5 9.13965 9.5C11.0771 9.5 12.6396 7.9375 12.6396 6C12.6396 4.09375 11.0771 2.53125 9.13965 2.53125V2.5ZM18.0146 5.5625C16.3271 2.25 12.9521 0 9.13965 0C5.2959 0 1.9209 2.25 0.233398 5.5625C0.170898 5.6875 0.139648 5.84375 0.139648 6C0.139648 6.1875 0.170898 6.34375 0.233398 6.46875C1.9209 9.78125 5.2959 12 9.13965 12C12.9521 12 16.3271 9.78125 18.0146 6.46875C18.0771 6.34375 18.1084 6.1875 18.1084 6.03125C18.1084 5.84375 18.0771 5.6875 18.0146 5.5625ZM9.13965 10.5C6.0459 10.5 3.20215 8.78125 1.70215 6C3.20215 3.21875 6.0459 1.5 9.13965 1.5C12.2021 1.5 15.0459 3.21875 16.5459 6C15.0459 8.78125 12.2021 10.5 9.13965 10.5Z" fill="white"/>
</svg>
