<svg width="16" height="16" viewBox="0 0 16 16" fill="none" xmlns="http://www.w3.org/2000/svg">
<path d="M10 1.5C12.4688 1.5 14.5 3.53125 14.5 6C14.5 8.5 12.4688 10.5 10 10.5C9.40625 10.5 8.8125 10.4062 8.3125 10.1875L7 11.5H6V13H4.5V14.5H1.5V11.5L5.6875 7.3125C5.5625 6.90625 5.5 6.46875 5.5 6.03125C5.5 6.03125 5.5 6.03125 5.5 6C5.5 3.53125 7.5 1.5 10 1.5ZM10 0C6.65625 0 4 2.6875 4 6C4 6.28125 4 6.5625 4.03125 6.84375L0.21875 10.6875C0.0625 10.8125 0 11 0 11.2188V15.25C0 15.6875 0.3125 16 0.75 16H5.25C5.65625 16 6 15.6875 6 15.25V14.5H6.75C7.15625 14.5 7.5 14.1875 7.5 13.75V13.125L8.75 11.875C9.15625 11.9688 9.5625 12 10 12C13.3125 12 16 9.34375 16 6C16 2.6875 13.3125 0 10 0ZM10 4.5C10 5.34375 10.6562 6 11.5 6C12.3125 6 13 5.34375 13 4.5C13 3.6875 12.3125 3 11.5 3C10.6562 3 10 3.6875 10 4.5Z" fill="#999999"/>
</svg>
