<svg width="14" height="14" viewBox="0 0 14 14" fill="none" xmlns="http://www.w3.org/2000/svg">
<path d="M11 6.5C11 6.3125 10.8125 6.125 10.625 6.125H7.875V3.375C7.875 3.1875 7.6875 3 7.5 3H6.5C6.28125 3 6.125 3.1875 6.125 3.375V6.125H3.375C3.15625 6.125 3 6.3125 3 6.5V7.5C3 7.71875 3.15625 7.875 3.375 7.875H6.125V10.625C6.125 10.8438 6.28125 11 6.5 11H7.5C7.6875 11 7.875 10.8438 7.875 10.625V7.875H10.625C10.8125 7.875 11 7.71875 11 7.5V6.5ZM14 1.5C14 0.6875 13.3125 0 12.5 0H1.5C0.65625 0 0 0.6875 0 1.5V12.5C0 13.3438 0.65625 14 1.5 14H12.5C13.3125 14 14 13.3438 14 12.5V1.5ZM12.5 12.3125C12.5 12.4375 12.4062 12.5 12.3125 12.5H1.6875C1.5625 12.5 1.5 12.4375 1.5 12.3125V1.6875C1.5 1.59375 1.5625 1.5 1.6875 1.5H12.3125C12.4062 1.5 12.5 1.59375 12.5 1.6875V12.3125Z" fill="white"/>
</svg>
