<svg width="12" height="16" viewBox="0 0 12 16" fill="none" xmlns="http://www.w3.org/2000/svg">
<path d="M6.21875 0C9.0625 0 11.9062 2.25 11.9062 5.1875C11.9062 7.96875 9.78125 8.96875 8.90625 9.5C8.875 9.90625 8.6875 10.3125 8.40625 10.5938C8.9375 11.1875 9.25 11.9375 9.25 12.75C9.25 14.5625 7.78125 16 6 16C4.1875 16 2.75 14.5625 2.75 12.75C2.75 11.9375 3.03125 11.1875 3.5625 10.5938C3.25 10.25 3.0625 9.78125 3.0625 9.28125V8.90625C3.0625 8.15625 3.25 7.5 3.59375 6.90625C3.1875 6.90625 2.75 6.75 2.4375 6.5L1.28125 5.625C0.4375 4.96875 0.25 3.78125 0.84375 2.90625C2.15625 0.96875 3.90625 0 6.21875 0ZM6 14.5C6.9375 14.5 7.75 13.7188 7.75 12.75C7.75 11.8125 6.9375 11 6 11C5.03125 11 4.25 11.8125 4.25 12.75C4.25 13.7188 5.03125 14.5 6 14.5ZM7.40625 9C7.40625 8 10.4062 7.9375 10.4062 5.1875C10.4062 3.09375 8.25 1.5 6.21875 1.5C4.28125 1.5 3.0625 2.3125 2.0625 3.75C1.9375 3.96875 1.96875 4.28125 2.1875 4.4375L3.34375 5.28125C3.53125 5.46875 3.84375 5.40625 4.03125 5.21875C4.625 4.4375 5.09375 3.96875 6.03125 3.96875C6.78125 3.96875 7.6875 4.4375 7.6875 5.15625C7.6875 5.6875 7.25 5.96875 6.5 6.375C5.65625 6.84375 4.5625 7.4375 4.5625 8.90625V9.28125C4.5625 9.53125 4.78125 9.75 5.03125 9.75H6.9375C7.1875 9.75 7.40625 9.53125 7.40625 9.28125V9Z" fill="#333333"/>
</svg>
