<svg width="14" height="15" viewBox="0 0 14 15" fill="none" xmlns="http://www.w3.org/2000/svg">
<path d="M13.5312 3.5625C13.8125 3.84375 14 4.21875 14 4.625V13C14 13.8438 13.3125 14.5 12.5 14.5H1.5C0.65625 14.5 0 13.8438 0 13V2C0 1.1875 0.65625 0.5 1.5 0.5H9.875C10.2812 0.5 10.6562 0.6875 10.9375 0.96875L13.5312 3.5625ZM8.5 2H4.5V4.5H8.5V2ZM12.3125 13C12.4062 13 12.5 12.9375 12.5 12.8125V4.71875C12.5 4.65625 12.4688 4.625 12.4375 4.59375L10 2.125V5.25C10 5.6875 9.65625 6 9.25 6H3.75C3.3125 6 3 5.6875 3 5.25V2H1.6875C1.5625 2 1.5 2.09375 1.5 2.1875V12.8125C1.5 12.9375 1.5625 13 1.6875 13H12.3125ZM7 6.75C8.5 6.75 9.75 8 9.75 9.5C9.75 11.0312 8.5 12.25 7 12.25C5.46875 12.25 4.25 11.0312 4.25 9.5C4.25 8 5.46875 6.75 7 6.75ZM7 10.75C7.6875 10.75 8.25 10.2188 8.25 9.5C8.25 8.8125 7.6875 8.25 7 8.25C6.28125 8.25 5.75 8.8125 5.75 9.5C5.75 10.2188 6.28125 10.75 7 10.75Z" fill="white"/>
</svg>
