<svg width="16" height="15" viewBox="0 0 16 15" fill="none" xmlns="http://www.w3.org/2000/svg">
<path d="M10 2.75C10 3.03125 9.75 3.25 9.5 3.25H7.5C7.21875 3.25 7 3.03125 7 2.75V2.25C7 2 7.21875 1.75 7.5 1.75H9.5C9.75 1.75 10 2 10 2.25V2.75ZM5.125 11V11.0312C5.3125 11.0312 5.5 11.1875 5.5 11.4062C5.5 11.5 5.4375 11.5938 5.375 11.6562L3.25 13.9062C3.1875 13.9688 3.09375 14.0312 3 14.0312C2.875 14.0312 2.78125 13.9688 2.71875 13.9062L0.59375 11.6562C0.53125 11.5938 0.46875 11.5 0.46875 11.375C0.46875 11.1875 0.65625 11 0.84375 11H0.875H2.25V0.5C2.25 0.25 2.46875 0 2.75 0H3.25C3.5 0 3.75 0.25 3.75 0.5V11H5.125ZM14 8.75C14 9.03125 13.75 9.25 13.5 9.25H7.5C7.21875 9.25 7 9.03125 7 8.75V8.25C7 8 7.21875 7.75 7.5 7.75H13.5C13.75 7.75 14 8 14 8.25V8.75ZM16 11.75C16 12.0312 15.75 12.25 15.5 12.25H7.5C7.21875 12.25 7 12.0312 7 11.75V11.25C7 11 7.21875 10.75 7.5 10.75H15.5C15.75 10.75 16 11 16 11.25V11.75ZM12 5.75C12 6.03125 11.75 6.25 11.5 6.25H7.5C7.21875 6.25 7 6.03125 7 5.75V5.25C7 5 7.21875 4.75 7.5 4.75H11.5C11.75 4.75 12 5 12 5.25V5.75Z" fill="#666666"/>
</svg>
