<svg width="15" height="16" viewBox="0 0 15 16" fill="none" xmlns="http://www.w3.org/2000/svg">
<path d="M8.51465 13H9.26465C9.45215 13 9.63965 12.8438 9.63965 12.625V5.875C9.63965 5.6875 9.45215 5.5 9.26465 5.5H8.51465C8.2959 5.5 8.13965 5.6875 8.13965 5.875V12.625C8.13965 12.8438 8.2959 13 8.51465 13ZM13.6396 2.5H11.0459L9.9834 0.75C9.7334 0.3125 9.2334 0 8.70215 0H5.5459C5.01465 0 4.51465 0.3125 4.26465 0.75L3.20215 2.5H0.639648C0.358398 2.5 0.139648 2.75 0.139648 3V3.5C0.139648 3.78125 0.358398 4 0.639648 4H1.13965V14.5C1.13965 15.3438 1.7959 16 2.63965 16H11.6396C12.4521 16 13.1396 15.3438 13.1396 14.5V4H13.6396C13.8896 4 14.1396 3.78125 14.1396 3.5V3C14.1396 2.75 13.8896 2.5 13.6396 2.5ZM5.4834 1.59375C5.51465 1.5625 5.57715 1.5 5.63965 1.5C5.63965 1.5 5.63965 1.5 5.6709 1.5H8.6084C8.6709 1.5 8.7334 1.5625 8.76465 1.59375L9.2959 2.5H4.95215L5.4834 1.59375ZM11.6396 14.5H2.63965V4H11.6396V14.5ZM5.01465 13H5.76465C5.95215 13 6.13965 12.8438 6.13965 12.625V5.875C6.13965 5.6875 5.95215 5.5 5.76465 5.5H5.01465C4.7959 5.5 4.63965 5.6875 4.63965 5.875V12.625C4.63965 12.8438 4.7959 13 5.01465 13Z" fill="white"/>
</svg>
