<svg width="21" height="16" viewBox="0 0 21 16" fill="none" xmlns="http://www.w3.org/2000/svg">
<path d="M20.0459 5.0625C20.1709 5.1875 20.1709 5.375 20.0459 5.5L15.9834 9.59375C15.8584 9.71875 15.6396 9.71875 15.5146 9.59375L13.2334 7.25C13.1084 7.125 13.1084 6.9375 13.2334 6.8125L13.8271 6.1875C13.9521 6.0625 14.1396 6.0625 14.2646 6.1875L15.7646 7.6875L18.9834 4.4375C19.1084 4.3125 19.2959 4.3125 19.4209 4.4375L20.0459 5.0625ZM7.13965 9C4.63965 9 2.63965 7 2.63965 4.5C2.63965 2.03125 4.63965 0 7.13965 0C9.6084 0 11.6396 2.03125 11.6396 4.5C11.6396 7 9.6084 9 7.13965 9ZM7.13965 1.5C5.4834 1.5 4.13965 2.875 4.13965 4.5C4.13965 6.15625 5.4834 7.5 7.13965 7.5C8.76465 7.5 10.1396 6.15625 10.1396 4.5C10.1396 2.875 8.76465 1.5 7.13965 1.5ZM9.9209 9.5C12.2334 9.5 14.1396 11.4062 14.1396 13.7188V14.5C14.1396 15.3438 13.4521 16 12.6396 16H1.63965C0.795898 16 0.139648 15.3438 0.139648 14.5V13.7188C0.139648 11.4062 2.01465 9.5 4.32715 9.5C5.2334 9.5 5.63965 10 7.13965 10C8.6084 10 9.01465 9.5 9.9209 9.5ZM12.6396 14.5V13.7188C12.6396 12.2188 11.4209 11 9.9209 11C9.45215 11 8.7334 11.5 7.13965 11.5C5.51465 11.5 4.7959 11 4.32715 11C2.82715 11 1.63965 12.2188 1.63965 13.7188V14.5H12.6396Z" fill="white"/>
</svg>
