<svg width="185" height="36" viewBox="0 0 185 36" fill="none" xmlns="http://www.w3.org/2000/svg">
<path d="M20.582 10.6094L23.1211 0.453125H35.8164L32.9219 10.6094H20.582ZM3.16406 10.6094L0.269531 0.453125H12.9648L15.5039 10.6094H3.16406ZM16.1387 13.1484L18.043 20.7656L19.9473 13.1484H32.1855L25.6602 36H10.4258L3.90039 13.1484H16.1387ZM38.6155 10.6094V0.453125H51.3108V10.6094H38.6155ZM51.3108 13.1484V36H38.6155V13.1484H51.3108ZM54.1098 10.6094V0.453125H79.5005V10.6094H54.1098ZM79.5005 13.1484V23.3047H66.8052V36H54.1098V13.1484H79.5005ZM100.073 13.1484H112.768V25.8438C112.768 32.6146 109.383 36 102.612 36H92.4558C85.6849 36 82.2995 32.6146 82.2995 25.8438V13.1484H94.9948V25.8438H100.073V13.1484ZM82.2995 10.6094C82.2995 3.83854 85.6849 0.453125 92.4558 0.453125H102.612C109.383 0.453125 112.768 3.83854 112.768 10.6094H82.2995ZM115.567 10.6094C115.567 3.83854 118.953 0.453125 125.724 0.453125H146.036V10.6094H115.567ZM128.263 13.1484V25.8438H146.036V36H125.724C118.953 36 115.567 32.6146 115.567 25.8438V13.1484H128.263ZM168.513 23.3047L166.609 15.6875L164.704 23.3047H168.513ZM177.857 13.1484L184.382 36H171.687L171.052 33.4609H162.165L161.53 36H148.835L155.361 13.1484H177.857ZM156.097 10.6094L158.991 0.453125H174.226L177.12 10.6094H156.097Z" fill="url(#paint0_linear_11_33)"/>
<defs>
<linearGradient id="paint0_linear_11_33" x1="220" y1="-12" x2="220" y2="40" gradientUnits="userSpaceOnUse">
<stop offset="0.3" stop-color="#0E273D"/>
<stop offset="1" stop-color="#2668A3"/>
</linearGradient>
</defs>
</svg>
